<?xml version="1.0" encoding="UTF-8"?>
<svg id="Layer_2" data-name="Layer 2" xmlns="http://www.w3.org/2000/svg" viewBox="0 0 279.13 29">
  <defs>
    <style>
      .cls-1 {
        fill: none;
        stroke: #a22d22;
        stroke-width: .5px;
      }

      .cls-2 {
        fill: #a22d22;
        stroke-width: 0px;
      }
    </style>
  </defs>
  <g id="Layer_1-2" data-name="Layer 1">
    <g>
      <line class="cls-1" x1="152.37" x2="152.37" y2="29"/>
      <g>
        <path class="cls-2" d="m159.9,13.09h1.19l2.02,6.97h.04l2.32-6.97h1.03l2.47,6.97h.04l1.96-6.97h1.08l-2.45,8.32h-1.12l-2.48-6.8h-.04l-2.32,6.8h-1.12l-2.61-8.32Z"/>
        <path class="cls-2" d="m181.08,19.84c-.42.64-.94,1.09-1.56,1.37-.62.28-1.3.41-2.04.41-.64,0-1.21-.11-1.73-.32-.52-.22-.96-.52-1.33-.91-.37-.39-.66-.85-.85-1.39-.2-.53-.3-1.12-.3-1.77s.1-1.2.31-1.73c.2-.53.49-.99.86-1.38.37-.39.81-.7,1.31-.92.5-.22,1.06-.33,1.67-.33s1.2.11,1.68.33c.49.22.89.52,1.22.88.33.37.58.78.75,1.25.17.47.25.94.25,1.42v.76h-6.98c0,.23.05.52.14.87.09.35.25.7.5,1.03.24.34.56.62.96.86.4.24.92.36,1.56.36.55,0,1.09-.13,1.6-.4.52-.26.91-.62,1.19-1.08l.79.67Zm-.83-3.29c0-.37-.08-.72-.23-1.04-.15-.32-.35-.61-.61-.85-.26-.25-.56-.44-.92-.58-.35-.14-.73-.22-1.12-.22-.59,0-1.08.12-1.47.36-.39.24-.7.52-.93.83-.23.31-.39.62-.49.91s-.14.5-.14.6h5.9Z"/>
        <path class="cls-2" d="m183.51,7.8h1.08v6.75h.04c.17-.29.38-.54.63-.75.25-.21.52-.38.82-.52s.6-.24.93-.31c.32-.07.64-.1.95-.1.64,0,1.22.11,1.76.32.53.22,1,.52,1.39.91.39.39.69.85.91,1.39.22.53.32,1.12.32,1.75s-.11,1.22-.32,1.75c-.22.53-.52,1-.91,1.39-.39.39-.85.69-1.39.91-.53.22-1.12.32-1.76.32-.31,0-.63-.03-.95-.1-.32-.07-.63-.17-.93-.31-.29-.14-.57-.31-.82-.52s-.46-.46-.63-.75h-.04v1.46h-1.08V7.8Zm.97,9.45c0,.47.09.91.27,1.32.18.41.43.77.74,1.08s.68.55,1.1.73c.42.18.88.27,1.37.27s.96-.09,1.37-.27c.41-.18.76-.42,1.04-.73s.51-.67.66-1.08c.15-.41.22-.86.22-1.32s-.07-.91-.22-1.32c-.15-.41-.37-.77-.66-1.08-.29-.31-.64-.55-1.04-.73-.41-.18-.86-.27-1.37-.27s-.95.09-1.37.27c-.42.18-.79.42-1.1.73-.31.31-.56.67-.74,1.08-.18.41-.27.86-.27,1.32Z"/>
        <path class="cls-2" d="m206.7,19.95h-.04c-.17.29-.38.54-.63.75s-.52.38-.82.52c-.29.14-.6.24-.93.31-.32.07-.64.1-.95.1-.64,0-1.22-.11-1.76-.32-.54-.22-1-.52-1.39-.91-.38-.39-.68-.85-.9-1.39-.22-.53-.32-1.12-.32-1.75s.11-1.22.32-1.75c.22-.53.52-1,.9-1.39.38-.39.85-.69,1.39-.91s1.13-.32,1.76-.32c.31,0,.63.03.95.1.32.07.63.17.93.31.29.14.57.31.82.52.25.21.46.46.63.75h.04v-6.75h1.08v13.61h-1.08v-1.46Zm.11-2.7c0-.47-.09-.91-.27-1.32-.18-.41-.43-.77-.74-1.08-.31-.31-.68-.55-1.1-.73s-.88-.27-1.37-.27-.96.09-1.37.27c-.41.18-.76.42-1.04.73-.29.31-.51.67-.66,1.08-.15.41-.23.86-.23,1.32s.08.91.23,1.32.37.77.66,1.08.64.55,1.04.73c.41.18.86.27,1.37.27s.95-.09,1.37-.27c.42-.18.79-.42,1.1-.73s.56-.67.74-1.08c.18-.41.27-.86.27-1.32Z"/>
        <path class="cls-2" d="m217.77,19.84c-.42.64-.94,1.09-1.56,1.37-.62.28-1.3.41-2.04.41-.64,0-1.21-.11-1.73-.32-.52-.22-.96-.52-1.33-.91-.37-.39-.66-.85-.85-1.39-.2-.53-.3-1.12-.3-1.77s.1-1.2.31-1.73c.2-.53.49-.99.86-1.38.37-.39.81-.7,1.31-.92.5-.22,1.06-.33,1.67-.33s1.2.11,1.68.33c.49.22.89.52,1.22.88.33.37.58.78.75,1.25.17.47.25.94.25,1.42v.76h-6.98c0,.23.05.52.14.87.09.35.25.7.5,1.03.24.34.56.62.96.86.4.24.92.36,1.56.36.55,0,1.09-.13,1.6-.4.52-.26.91-.62,1.19-1.08l.79.67Zm-.83-3.29c0-.37-.08-.72-.23-1.04-.15-.32-.35-.61-.61-.85-.26-.25-.56-.44-.92-.58-.35-.14-.73-.22-1.12-.22-.59,0-1.08.12-1.47.36-.39.24-.7.52-.93.83-.23.31-.39.62-.49.91s-.14.5-.14.6h5.9Z"/>
        <path class="cls-2" d="m219.26,13.09h1.22l2.77,7.15,2.7-7.15h1.1l-3.28,8.32h-1.12l-3.4-8.32Z"/>
        <path class="cls-2" d="m236.11,19.84c-.42.64-.94,1.09-1.56,1.37-.62.28-1.3.41-2.04.41-.64,0-1.21-.11-1.73-.32-.52-.22-.96-.52-1.33-.91-.37-.39-.66-.85-.86-1.39-.2-.53-.3-1.12-.3-1.77s.1-1.2.31-1.73c.2-.53.49-.99.86-1.38.37-.39.81-.7,1.31-.92.5-.22,1.06-.33,1.67-.33s1.2.11,1.68.33c.49.22.89.52,1.22.88.33.37.58.78.75,1.25.17.47.25.94.25,1.42v.76h-6.98c0,.23.04.52.13.87.09.35.25.7.5,1.03.24.34.56.62.96.86.4.24.92.36,1.56.36.55,0,1.09-.13,1.6-.4.52-.26.91-.62,1.19-1.08l.79.67Zm-.83-3.29c0-.37-.08-.72-.22-1.04-.15-.32-.35-.61-.61-.85-.26-.25-.56-.44-.92-.58-.35-.14-.73-.22-1.12-.22-.59,0-1.08.12-1.47.36-.39.24-.7.52-.93.83-.23.31-.39.62-.49.91-.1.29-.14.5-.14.6h5.9Z"/>
        <path class="cls-2" d="m238.95,7.8h1.08v13.61h-1.08V7.8Z"/>
        <path class="cls-2" d="m242.63,17.25c0-.64.11-1.22.32-1.75s.52-1,.9-1.39c.38-.39.85-.69,1.39-.91s1.13-.32,1.76-.32,1.22.11,1.75.32c.53.22,1,.52,1.39.91.39.39.69.85.91,1.39.22.53.32,1.12.32,1.75s-.11,1.22-.32,1.75c-.22.53-.52,1-.91,1.39-.39.39-.85.69-1.39.91-.53.22-1.12.32-1.75.32s-1.22-.11-1.76-.32c-.54-.22-1-.52-1.39-.91-.38-.39-.68-.85-.9-1.39-.22-.53-.32-1.12-.32-1.75Zm1.08,0c0,.47.08.91.23,1.32.15.41.37.77.66,1.08.29.31.64.55,1.04.73.41.18.86.27,1.37.27s.96-.09,1.37-.27c.41-.18.76-.42,1.04-.73s.51-.67.66-1.08c.15-.41.22-.86.22-1.32s-.08-.91-.22-1.32c-.15-.41-.37-.77-.66-1.08-.29-.31-.64-.55-1.04-.73s-.86-.27-1.37-.27-.96.09-1.37.27c-.41.18-.76.42-1.04.73-.29.31-.51.67-.66,1.08-.15.41-.23.86-.23,1.32Z"/>
        <path class="cls-2" d="m253.55,13.09h1.08v1.46h.04c.17-.29.38-.54.63-.75.25-.21.52-.38.82-.52.29-.14.6-.24.93-.31.32-.07.64-.1.95-.1.64,0,1.22.11,1.75.32.53.22,1,.52,1.39.91s.69.85.91,1.39.32,1.12.32,1.75-.11,1.22-.32,1.75c-.22.53-.52,1-.91,1.39-.39.39-.85.69-1.39.91-.53.22-1.12.32-1.75.32-.31,0-.63-.03-.95-.1-.32-.07-.63-.17-.93-.31-.29-.14-.57-.31-.82-.52s-.46-.46-.63-.75h-.04v5.56h-1.08v-12.42Zm.97,4.16c0,.47.09.91.27,1.32.18.41.43.77.74,1.08.31.31.68.55,1.1.73.42.18.88.27,1.37.27s.96-.09,1.37-.27c.41-.18.76-.42,1.04-.73.29-.31.51-.67.66-1.08.15-.41.23-.86.23-1.32s-.08-.91-.23-1.32c-.15-.41-.37-.77-.66-1.08-.29-.31-.64-.55-1.04-.73-.41-.18-.86-.27-1.37-.27s-.95.09-1.37.27-.79.42-1.1.73c-.31.31-.56.67-.74,1.08-.18.41-.27.86-.27,1.32Z"/>
        <path class="cls-2" d="m272.13,19.84c-.42.64-.94,1.09-1.56,1.37-.62.28-1.3.41-2.04.41-.64,0-1.21-.11-1.73-.32-.52-.22-.96-.52-1.33-.91-.37-.39-.66-.85-.86-1.39-.2-.53-.3-1.12-.3-1.77s.1-1.2.31-1.73c.2-.53.49-.99.86-1.38.37-.39.81-.7,1.31-.92.5-.22,1.06-.33,1.67-.33s1.2.11,1.68.33c.49.22.89.52,1.22.88.33.37.58.78.75,1.25.17.47.25.94.25,1.42v.76h-6.98c0,.23.04.52.13.87.09.35.25.7.5,1.03.24.34.56.62.96.86.4.24.92.36,1.56.36.55,0,1.09-.13,1.6-.4.52-.26.91-.62,1.19-1.08l.79.67Zm-.83-3.29c0-.37-.08-.72-.22-1.04-.15-.32-.35-.61-.61-.85-.26-.25-.56-.44-.92-.58-.35-.14-.73-.22-1.12-.22-.59,0-1.08.12-1.47.36-.39.24-.7.52-.93.83-.23.31-.39.62-.49.91-.1.29-.14.5-.14.6h5.9Z"/>
        <path class="cls-2" d="m274.79,15.43c0-.16,0-.35-.02-.57s-.02-.45-.03-.67c0-.23-.01-.44-.03-.64-.01-.2-.02-.35-.02-.46h1.08c.01.31.02.61.03.9s.02.47.04.56c.28-.49.63-.89,1.06-1.21.43-.31.96-.47,1.58-.47.11,0,.21,0,.31.03.1.02.21.04.32.06l-.13,1.06c-.14-.05-.28-.07-.41-.07-.47,0-.87.08-1.21.23-.34.15-.62.36-.85.62-.22.26-.39.57-.5.93-.11.35-.16.74-.16,1.14v4.54h-1.08v-5.98Z"/>
      </g>
      <g>
        <path class="cls-2" d="m4.87,10.46v13.01c0,.29-.02.67-.06,1.14-.04.47-.17.93-.38,1.37-.22.44-.56.82-1.03,1.14-.47.32-1.14.48-2,.48-.24,0-.48-.02-.71-.05s-.46-.09-.68-.17l.24-1.99c.13.05.27.09.43.13.16.04.31.06.46.06.59,0,1-.19,1.24-.56.23-.38.35-.92.35-1.64v-12.91h2.16Zm-2.66-4.08c0-.43.16-.8.47-1.12.31-.31.68-.47,1.12-.47s.8.16,1.12.47c.31.31.47.68.47,1.12s-.16.8-.47,1.12c-.31.31-.68.47-1.12.47s-.8-.16-1.12-.47c-.31-.31-.47-.68-.47-1.12Z"/>
        <path class="cls-2" d="m7.97,6.38c0-.43.16-.8.47-1.12.31-.31.68-.47,1.12-.47s.8.16,1.12.47c.31.31.47.68.47,1.12s-.16.8-.47,1.12c-.31.31-.68.47-1.12.47s-.8-.16-1.12-.47c-.31-.31-.47-.68-.47-1.12Zm.5,4.08h2.16v11.38h-2.16v-11.38Z"/>
        <path class="cls-2" d="m14.06,10.46h2.02v1.78h.05c.05-.16.17-.36.37-.6s.46-.47.77-.68.68-.4,1.1-.55c.42-.15.89-.23,1.4-.23.85,0,1.56.18,2.14.53s1.05.88,1.42,1.58c.37-.7.89-1.23,1.56-1.58s1.35-.53,2.04-.53c.88,0,1.6.14,2.16.43.56.29,1,.67,1.32,1.14.32.47.54,1.01.66,1.61.12.6.18,1.22.18,1.86v6.62h-2.16v-6.34c0-.43-.03-.85-.08-1.25-.06-.4-.17-.75-.35-1.06-.18-.3-.42-.55-.74-.73-.32-.18-.74-.28-1.27-.28-1.04,0-1.78.32-2.23.96-.45.64-.67,1.46-.67,2.47v6.22h-2.16v-5.95c0-.54-.03-1.04-.08-1.49-.06-.45-.17-.83-.34-1.16s-.41-.58-.72-.77c-.31-.18-.73-.28-1.26-.28-.38,0-.76.08-1.12.23s-.68.38-.95.68c-.27.3-.49.69-.65,1.16-.16.47-.24,1.03-.24,1.67v5.9h-2.16v-11.38Z"/>
        <path class="cls-2" d="m49.32,13.49c-.4-.42-.82-.73-1.26-.95s-.96-.32-1.57-.32-1.11.11-1.55.32c-.44.22-.81.51-1.1.89-.3.38-.52.81-.67,1.3-.15.49-.23,1-.23,1.52s.09,1.03.26,1.5c.18.47.42.88.74,1.24.32.35.7.63,1.15.83.45.2.95.3,1.51.3.61,0,1.13-.11,1.56-.32.43-.22.83-.53,1.2-.95l1.54,1.54c-.56.62-1.21,1.07-1.96,1.34-.74.27-1.53.41-2.36.41-.88,0-1.68-.14-2.41-.43-.73-.29-1.36-.69-1.88-1.21-.53-.52-.94-1.14-1.22-1.87-.29-.73-.43-1.53-.43-2.41s.14-1.69.43-2.42c.29-.74.69-1.37,1.21-1.9.52-.53,1.14-.94,1.87-1.24.73-.3,1.54-.44,2.44-.44.83,0,1.63.15,2.39.44.76.3,1.42.75,1.98,1.36l-1.63,1.49Z"/>
        <path class="cls-2" d="m52.8,11.85c.61-.56,1.31-.98,2.11-1.26.8-.28,1.6-.42,2.4-.42s1.55.1,2.15.31c.6.21,1.09.49,1.48.84.38.35.67.76.85,1.21.18.46.28.93.28,1.43v5.81c0,.4,0,.77.02,1.1s.04.66.07.96h-1.92c-.05-.58-.07-1.15-.07-1.73h-.05c-.48.74-1.05,1.26-1.7,1.56-.66.3-1.42.46-2.28.46-.53,0-1.03-.07-1.51-.22-.48-.14-.9-.36-1.26-.65-.36-.29-.64-.64-.85-1.07-.21-.42-.31-.92-.31-1.48,0-.74.16-1.35.49-1.85s.78-.9,1.34-1.21c.57-.31,1.23-.54,1.99-.67.76-.14,1.57-.2,2.44-.2h1.58v-.48c0-.29-.06-.58-.17-.86s-.28-.55-.5-.78c-.22-.23-.5-.42-.84-.55-.34-.14-.74-.2-1.2-.2-.42,0-.78.04-1.09.12-.31.08-.6.18-.85.3-.26.12-.49.26-.7.42-.21.16-.41.31-.6.46l-1.3-1.34Zm6.1,4.51c-.51,0-1.04.03-1.57.08-.54.06-1.02.16-1.46.32-.44.16-.8.38-1.08.67-.28.29-.42.66-.42,1.1,0,.66.22,1.13.66,1.42s1.04.43,1.79.43c.59,0,1.1-.1,1.51-.3.42-.2.75-.46,1.01-.78.26-.32.44-.68.55-1.07.11-.39.17-.78.17-1.16v-.72h-1.15Z"/>
        <path class="cls-2" d="m65.21,10.46h2.16v1.75h.05c.14-.3.34-.58.58-.83.24-.25.51-.46.8-.64.3-.18.62-.32.97-.42s.7-.16,1.06-.16.67.05.96.14l-.1,2.33c-.18-.05-.35-.09-.53-.12-.18-.03-.35-.05-.53-.05-1.06,0-1.86.3-2.42.89s-.84,1.51-.84,2.76v5.71h-2.16v-11.38Z"/>
        <path class="cls-2" d="m74.09,10.46h2.16v1.63h.05c.42-.61.99-1.08,1.72-1.42.73-.34,1.48-.5,2.24-.5.88,0,1.68.15,2.39.46s1.32.73,1.82,1.27c.5.54.89,1.18,1.16,1.91.27.73.41,1.51.41,2.34s-.14,1.64-.41,2.36c-.27.73-.66,1.36-1.16,1.9-.5.54-1.11.96-1.82,1.26s-1.51.46-2.39.46c-.82,0-1.58-.17-2.3-.52-.72-.34-1.27-.81-1.66-1.4h-.05v8.4h-2.16V10.46Zm5.9,1.73c-.58,0-1.1.1-1.56.3-.46.2-.86.47-1.18.82-.32.34-.57.76-.74,1.25-.18.49-.26,1.02-.26,1.6s.09,1.11.26,1.6c.18.49.42.9.74,1.25.32.34.71.62,1.18.82.46.2.98.3,1.56.3s1.1-.1,1.56-.3c.46-.2.86-.47,1.18-.82.32-.34.57-.76.74-1.25.18-.49.26-1.02.26-1.6s-.09-1.11-.26-1.6c-.18-.49-.42-.9-.74-1.25-.32-.34-.71-.62-1.18-.82-.46-.2-.98-.3-1.56-.3Z"/>
        <path class="cls-2" d="m90.38,16.94c0,.5.11.95.32,1.36.22.41.5.76.85,1.04s.76.51,1.22.67c.46.16.94.24,1.44.24.67,0,1.26-.16,1.75-.47.5-.31.95-.72,1.37-1.24l1.63,1.25c-1.2,1.55-2.88,2.33-5.04,2.33-.9,0-1.71-.15-2.44-.46s-1.34-.72-1.85-1.26c-.5-.54-.89-1.17-1.16-1.9-.27-.73-.41-1.52-.41-2.36s.15-1.64.44-2.36c.3-.73.7-1.36,1.22-1.9.52-.54,1.14-.96,1.86-1.26.72-.3,1.5-.46,2.35-.46,1.01,0,1.86.18,2.56.53s1.27.81,1.72,1.38.77,1.21.97,1.92c.2.71.3,1.44.3,2.17v.77h-9.12Zm6.82-1.73c-.02-.48-.09-.92-.23-1.32-.14-.4-.34-.75-.61-1.04-.27-.3-.61-.53-1.02-.7-.41-.17-.88-.25-1.43-.25s-1.01.1-1.45.3-.81.46-1.12.78c-.3.32-.54.68-.71,1.07-.17.39-.25.78-.25,1.16h6.82Z"/>
        <path class="cls-2" d="m102.09,10.46h2.16v1.75h.05c.27-.61.74-1.1,1.42-1.48.67-.38,1.45-.56,2.33-.56.54,0,1.07.08,1.57.25.5.17.94.43,1.32.78.38.35.68.8.9,1.36.22.55.34,1.2.34,1.96v7.32h-2.16v-6.72c0-.53-.07-.98-.22-1.36s-.34-.68-.58-.91c-.24-.23-.52-.4-.83-.5-.31-.1-.64-.16-.97-.16-.45,0-.86.07-1.25.22-.38.14-.72.37-1.01.68-.29.31-.51.71-.67,1.19-.16.48-.24,1.05-.24,1.7v5.86h-2.16v-11.38Z"/>
        <path class="cls-2" d="m121.53,12.33h-3.1v5.16c0,.32,0,.64.02.95.02.31.08.59.18.84s.26.45.48.6c.22.15.53.23.95.23.26,0,.52-.02.79-.07.27-.05.52-.14.74-.26v1.97c-.26.14-.59.24-1,.3-.41.06-.72.08-.95.08-.83,0-1.48-.12-1.93-.35-.46-.23-.79-.53-1.01-.9s-.34-.78-.38-1.24c-.04-.46-.06-.92-.06-1.38v-5.93h-2.5v-1.87h2.5v-3.19h2.16v3.19h3.1v1.87Z"/>
        <path class="cls-2" d="m125.95,16.94c0,.5.11.95.32,1.36.22.41.5.76.85,1.04s.76.51,1.22.67c.46.16.94.24,1.44.24.67,0,1.26-.16,1.75-.47.5-.31.95-.72,1.37-1.24l1.63,1.25c-1.2,1.55-2.88,2.33-5.04,2.33-.9,0-1.71-.15-2.44-.46s-1.34-.72-1.85-1.26c-.5-.54-.89-1.17-1.16-1.9-.27-.73-.41-1.52-.41-2.36s.15-1.64.44-2.36c.3-.73.7-1.36,1.22-1.9.52-.54,1.14-.96,1.86-1.26.72-.3,1.5-.46,2.35-.46,1.01,0,1.86.18,2.56.53s1.27.81,1.72,1.38.77,1.21.97,1.92c.2.71.3,1.44.3,2.17v.77h-9.12Zm6.82-1.73c-.02-.48-.09-.92-.23-1.32-.14-.4-.34-.75-.61-1.04-.27-.3-.61-.53-1.02-.7-.41-.17-.88-.25-1.43-.25s-1.01.1-1.45.3-.81.46-1.12.78c-.3.32-.54.68-.71,1.07-.17.39-.25.78-.25,1.16h6.82Z"/>
        <path class="cls-2" d="m137.66,10.46h2.16v1.75h.05c.14-.3.34-.58.58-.83.24-.25.51-.46.8-.64.3-.18.62-.32.97-.42s.7-.16,1.06-.16.67.05.96.14l-.1,2.33c-.18-.05-.35-.09-.53-.12-.18-.03-.35-.05-.53-.05-1.06,0-1.86.3-2.42.89s-.84,1.51-.84,2.76v5.71h-2.16v-11.38Z"/>
      </g>
    </g>
  </g>
</svg>